<?xml version="1.0" standalone="no"?>
<!DOCTYPE svg PUBLIC "-//W3C//DTD SVG 20010904//EN"
        "http://www.w3.org/TR/2001/REC-SVG-20010904/DTD/svg10.dtd">
<svg version="1.0" xmlns="http://www.w3.org/2000/svg"
     width="800.000000pt" height="800.000000pt" viewBox="0 0 800.000000 800.000000"
     preserveAspectRatio="xMidYMid meet">
    <defs>
        <linearGradient id="gradient" x1="0%" y1="0%" x2="0%" y2="100%">
            <stop offset="0%" stop-color="#0099ff"/>
            <stop offset="70%" stop-color="#0099ff"/>
            <stop offset="100%" stop-color="#13c0d3"/>
        </linearGradient>
    </defs>
    <g transform="translate(0.000000,800.000000) scale(0.100000,-0.100000)"
       fill="url(#gradient)" stroke="none">
        <path d="M3830 7384 c-354 -32 -655 -114 -949 -259 -259 -129 -464 -277 -672
-484 -288 -289 -478 -597 -610 -991 -26 -79 -46 -146 -44 -148 2 -2 441 -7
976 -10 l973 -7 -589 -474 c-325 -261 -593 -477 -597 -480 -4 -3 85 -119 196
-258 l203 -252 916 737 917 737 0 323 0 322 -952 0 -952 0 54 56 c30 31 89 83
130 117 571 463 1349 555 2007 238 214 -104 372 -218 548 -397 l110 -112 57 2
c58 3 118 22 118 37 0 5 7 9 15 9 9 0 19 11 24 23 5 13 24 36 43 50 60 47 108
106 108 131 0 9 6 15 12 14 7 -2 14 7 16 20 2 12 8 22 13 22 5 0 9 6 9 14 0 8
7 21 15 30 8 8 20 27 25 41 9 25 6 33 -37 83 -208 244 -488 459 -788 607 -351
173 -675 251 -1065 259 -102 2 -205 2 -230 0z"/>
        <path d="M4396 4772 l-916 -737 0 -327 0 -328 847 -2 848 -3 -110 -73 c-482
-323 -1072 -407 -1620 -232 -288 93 -538 245 -764 467 -74 73 -107 99 -113 90
-19 -28 -30 -49 -33 -69 -3 -11 -11 -28 -18 -37 -8 -9 -17 -34 -20 -56 -4 -22
-11 -41 -17 -43 -5 -2 -8 -8 -5 -12 3 -5 -16 -26 -41 -47 -26 -21 -55 -46 -66
-55 -10 -10 -21 -18 -24 -18 -3 0 -20 -10 -37 -22 -42 -30 -94 -58 -108 -58
-13 0 -59 -46 -59 -59 0 -5 53 -60 117 -122 418 -405 944 -644 1538 -699 205
-19 421 -9 645 30 512 88 987 335 1355 704 190 190 347 405 463 633 50 98 142
311 142 328 0 3 -425 6 -943 7 l-944 3 603 485 602 485 -32 40 c-18 22 -109
135 -203 252 l-171 211 -916 -736z"/>
        <path d="M2026 3536 c-4 -16 -15 -25 -38 -30 l-33 -7 24 -19 c20 -18 22 -23
12 -51 -15 -43 -15 -43 20 -18 l31 22 30 -23 31 -23 -7 26 c-3 14 -8 31 -11
39 -3 7 9 23 27 36 l33 22 -42 0 c-37 0 -43 3 -49 25 -8 32 -20 32 -28 1z"/>
        <path d="M2320 1940 l0 -90 -190 0 -190 0 0 -285 0 -285 75 0 75 0 0 35 0 35
115 0 115 0 0 -165 0 -165 80 0 80 0 0 165 0 165 115 0 115 0 0 -35 0 -35 75
0 75 0 0 285 0 285 -190 0 -190 0 0 90 0 90 -80 0 -80 0 0 -90z m0 -340 l0
-110 -115 0 -115 0 0 110 0 110 115 0 115 0 0 -110z m390 0 l0 -110 -115 0
-115 0 0 110 0 110 115 0 115 0 0 -110z"/>
        <path d="M3550 1965 l0 -65 -51 0 c-55 0 -53 -4 -33 58 4 14 -4 20 -38 29 -24
6 -50 15 -59 18 -13 5 -20 -3 -29 -32 -7 -21 -28 -75 -46 -121 -19 -46 -32
-87 -30 -91 3 -4 24 -16 48 -27 l43 -19 -60 -5 -60 -5 -3 -57 -3 -58 361 0
361 0 -3 58 -3 57 -133 3 -133 3 3 37 3 37 113 3 112 3 0 54 0 55 -115 0 -115
0 0 65 0 65 -65 0 -65 0 0 -65z m-2 -217 l3 -38 -90 0 -91 0 12 28 c22 50 27
53 97 50 l66 -3 3 -37z"/>
        <path d="M4110 1966 l-12 -66 -49 0 -49 0 0 -60 0 -60 35 0 c19 0 35 -1 35 -3
0 -1 -13 -49 -30 -107 -20 -70 -30 -127 -30 -172 l0 -68 95 0 95 0 0 -44 c0
-50 -8 -56 -78 -56 -26 0 -64 -3 -85 -6 l-38 -7 3 -61 3 -61 40 0 c22 0 66 3
98 7 l57 7 0 -95 0 -94 65 0 65 0 0 99 0 99 31 6 c17 3 44 6 59 6 24 0 28 5
34 38 3 20 6 50 6 66 l0 29 -65 -7 -65 -7 0 41 0 40 60 0 60 0 0 60 0 60 -60
0 -59 0 -3 88 -3 87 -60 0 -60 0 -3 -87 -3 -88 -34 0 -33 0 19 68 c10 37 25
87 32 112 l13 45 122 3 122 3 0 59 0 60 -105 0 c-58 0 -105 3 -105 8 0 4 7 31
14 60 l14 52 -31 0 c-18 0 -48 3 -68 6 l-36 6 -13 -66z"/>
        <path d="M4520 1979 c-18 -76 -77 -244 -106 -300 l-23 -47 60 -36 60 -36 23
53 c13 28 31 73 41 100 l18 47 133 0 c74 0 134 -1 134 -2 0 -2 -11 -38 -24
-81 -17 -55 -21 -79 -13 -82 23 -7 120 -25 122 -23 1 2 13 44 28 94 17 59 27
115 27 157 l0 67 -180 0 c-137 0 -180 3 -180 13 0 6 7 33 15 59 7 26 11 50 7
52 -4 2 -35 8 -69 11 l-60 7 -13 -53z"/>
        <path d="M5680 1920 l0 -110 -51 0 -51 0 6 30 c3 17 9 43 12 59 6 29 5 29 -62
44 -38 9 -69 15 -70 14 0 -1 -11 -45 -24 -97 -12 -52 -37 -140 -56 -194 -18
-55 -32 -101 -31 -102 9 -8 108 -54 116 -54 5 0 23 35 39 78 l30 77 71 3 71 3
0 -96 0 -95 -165 0 -165 0 0 -65 0 -65 165 0 165 0 0 -165 0 -165 75 0 75 0 0
165 0 165 120 0 120 0 0 65 0 65 -120 0 -120 0 0 95 0 95 105 0 105 0 0 70 0
70 -105 0 -105 0 0 110 0 110 -75 0 -75 0 0 -110z"/>
        <path d="M5236 2008 c-16 -59 -98 -274 -138 -364 l-49 -112 17 -91 18 -92 43
68 43 68 0 -233 0 -233 68 3 67 3 5 395 5 395 33 78 c17 43 32 82 32 86 0 7
-107 41 -130 41 -6 0 -12 -6 -14 -12z"/>
        <path d="M3045 1984 c-22 -15 -44 -30 -48 -34 -7 -6 85 -163 113 -193 7 -8
120 59 120 71 0 9 -132 182 -139 182 -3 0 -24 -12 -46 -26z"/>
        <path d="M4616 1669 c-3 -17 -6 -52 -6 -78 0 -68 -26 -178 -56 -241 -18 -36
-56 -83 -109 -136 l-82 -81 44 -54 c25 -30 47 -56 49 -58 5 -6 84 67 132 124
24 27 56 76 72 108 16 32 32 58 35 58 3 0 18 -22 32 -48 37 -71 101 -151 152
-189 24 -19 47 -34 51 -34 4 0 26 28 49 63 l41 62 -22 15 c-51 33 -141 127
-172 179 -18 31 -45 86 -60 124 -24 60 -26 75 -20 142 l7 75 -65 0 c-65 0 -66
0 -72 -31z"/>
        <path d="M2960 1585 l0 -65 45 0 45 0 0 -129 0 -129 -50 -44 -51 -43 16 -38
c8 -20 22 -54 30 -74 l16 -37 58 58 58 57 49 -30 c88 -54 137 -61 455 -61
l287 0 18 53 c9 28 19 57 21 62 2 7 -100 10 -309 10 -336 0 -354 2 -429 55
l-29 21 0 200 0 199 -115 0 -115 0 0 -65z"/>
        <path d="M3310 1390 l0 -150 285 0 285 0 0 150 0 150 -285 0 -285 0 0 -150z
m440 0 l0 -40 -150 0 -150 0 0 40 0 40 150 0 150 0 0 -40z"/>
        <path d="M2511 782 c-49 -24 -71 -60 -77 -123 -9 -97 46 -164 136 -164 82 0
140 63 140 154 0 113 -103 183 -199 133z m118 -17 c69 -35 81 -160 21 -220
-26 -25 -38 -30 -79 -30 -59 0 -95 28 -112 86 -35 116 69 217 170 164z"/>
        <path d="M3141 782 c-52 -26 -74 -63 -78 -129 -8 -122 85 -194 192 -149 34 15
35 16 35 75 l0 61 -47 -2 c-44 -1 -45 -2 -10 -5 l37 -4 0 -50 c0 -44 -3 -51
-26 -59 -61 -24 -127 1 -150 55 -51 122 46 239 160 195 20 -7 26 -6 26 4 0 28
-90 34 -139 8z"/>
        <path d="M3933 785 c-87 -37 -106 -184 -34 -256 59 -59 173 -42 212 31 26 48
25 135 -1 178 -34 56 -111 76 -177 47z m117 -20 c39 -20 60 -63 60 -120 0 -89
-54 -142 -134 -132 -72 10 -104 63 -96 157 7 86 94 134 170 95z"/>
        <path d="M1905 780 c3 -5 40 -10 81 -10 41 0 74 -2 74 -5 0 -3 -35 -58 -78
-123 -43 -64 -82 -123 -86 -129 -6 -10 17 -13 98 -13 127 0 144 18 21 22 l-85
3 85 127 c47 70 85 130 85 133 0 3 -45 5 -101 5 -64 0 -98 -4 -94 -10z"/>
        <path d="M2160 645 c0 -90 4 -145 10 -145 6 0 10 30 10 70 l0 70 85 0 85 0 0
-70 c0 -40 4 -70 10 -70 6 0 10 55 10 145 0 90 -4 145 -10 145 -6 0 -10 -28
-10 -65 l0 -65 -85 0 -85 0 0 65 c0 37 -4 65 -10 65 -6 0 -10 -55 -10 -145z"/>
        <path d="M2770 645 c0 -90 4 -145 10 -145 6 0 10 49 10 127 l0 126 95 -126
c53 -70 100 -127 105 -127 6 0 10 57 10 145 0 179 -18 198 -22 23 l-3 -123
-93 123 c-51 67 -97 122 -102 122 -6 0 -10 -58 -10 -145z"/>
        <path d="M3350 780 c0 -6 33 -10 80 -10 l80 0 -90 -135 -90 -135 105 0 c126 0
143 18 20 22 l-84 3 84 124 c47 69 85 128 85 133 0 4 -43 8 -95 8 -57 0 -95
-4 -95 -10z"/>
        <path d="M3636 657 c-27 -72 -51 -138 -54 -144 -2 -7 0 -13 6 -13 6 0 18 20
28 45 l17 46 65 -3 65 -3 16 -42 c8 -24 21 -43 27 -43 8 0 3 25 -15 73 -16 39
-40 105 -55 145 -15 39 -33 72 -39 72 -7 0 -34 -60 -61 -133z m89 30 c14 -37
25 -70 25 -72 0 -3 -25 -5 -55 -5 l-54 0 26 75 c15 41 28 73 30 72 1 -2 14
-33 28 -70z"/>
        <path d="M4310 645 c0 -90 4 -145 10 -145 6 0 10 28 10 65 l0 65 29 0 c33 0
56 -24 85 -89 11 -22 23 -41 28 -41 12 0 11 5 -21 71 l-28 60 28 29 c34 34 37
67 8 104 -18 23 -27 26 -85 26 l-64 0 0 -145z m136 100 c31 -47 -5 -95 -72
-95 l-44 0 0 60 0 60 50 0 c42 0 52 -4 66 -25z"/>
        <path d="M4542 670 c4 -108 6 -122 27 -144 46 -49 137 -41 166 14 17 33 22
250 6 250 -5 0 -11 -54 -13 -121 -3 -113 -5 -122 -27 -140 -32 -26 -74 -24
-108 5 -27 23 -28 28 -31 140 -3 69 -8 116 -14 116 -7 0 -9 -43 -6 -120z"/>
        <path d="M4901 768 c-5 -13 -29 -77 -55 -142 -25 -66 -44 -122 -41 -124 9 -9
22 9 35 47 l13 41 64 0 64 0 19 -45 c33 -76 41 -50 11 33 -68 182 -78 206 -89
210 -7 2 -16 -7 -21 -20z m47 -80 c12 -35 22 -66 22 -70 0 -5 -24 -8 -54 -8
l-53 0 25 70 c13 39 27 70 31 70 3 0 16 -28 29 -62z"/>
        <path d="M5090 645 c0 -181 18 -197 22 -19 l3 125 92 -125 c51 -69 97 -126
103 -126 6 0 10 53 10 145 0 179 -18 198 -22 23 l-3 -123 -93 123 c-51 67 -97
122 -102 122 -6 0 -10 -58 -10 -145z"/>
        <path d="M5440 686 c0 -126 -11 -165 -51 -173 -30 -6 -40 -23 -15 -23 38 0 65
20 75 57 14 49 14 243 1 243 -6 0 -10 -41 -10 -104z"/>
        <path d="M5530 645 c0 -90 4 -145 10 -145 6 0 10 55 10 145 0 90 -4 145 -10
145 -6 0 -10 -55 -10 -145z"/>
        <path d="M5662 652 c-55 -146 -57 -152 -43 -152 4 0 16 20 26 45 l17 46 66 -3
65 -3 15 -42 c7 -24 18 -43 23 -43 5 0 9 3 9 8 1 22 -104 282 -114 282 -6 0
-35 -62 -64 -138z m92 34 c14 -37 26 -70 26 -72 0 -2 -25 -4 -56 -4 -41 0 -55
3 -51 13 2 6 15 40 27 75 13 34 24 61 26 60 1 -2 14 -34 28 -72z"/>
        <path d="M5900 645 c0 -179 18 -198 22 -23 l3 122 90 -122 c50 -67 93 -121 98
-122 4 0 7 65 7 145 0 178 -18 198 -22 24 l-3 -121 -89 121 c-49 67 -93 121
-97 121 -5 0 -9 -65 -9 -145z"/>
    </g>
</svg>
